<?xml version="1.0" encoding="utf-8" standalone="no"?>
<!DOCTYPE svg PUBLIC "-//W3C//DTD SVG 1.1//EN"
  "http://www.w3.org/Graphics/SVG/1.1/DTD/svg11.dtd">
<svg xmlns:xlink="http://www.w3.org/1999/xlink" width="923.330312pt" height="316.007719pt" viewBox="0 0 923.330312 316.007719" xmlns="http://www.w3.org/2000/svg" version="1.1">
 <metadata>
  <rdf:RDF xmlns:dc="http://purl.org/dc/elements/1.1/" xmlns:cc="http://creativecommons.org/ns#" xmlns:rdf="http://www.w3.org/1999/02/22-rdf-syntax-ns#">
   <cc:Work>
    <dc:type rdf:resource="http://purl.org/dc/dcmitype/StillImage"/>
    <dc:date>2026-10-06T21:49:40.313784</dc:date>
    <dc:format>image/svg+xml</dc:format>
    <dc:creator>
     <cc:Agent>
      <dc:title>Matplotlib v3.10.9, https://matplotlib.org/</dc:title>
     </cc:Agent>
    </dc:creator>
   </cc:Work>
  </rdf:RDF>
 </metadata>
 <defs>
  <style type="text/css">*{stroke-linejoin: round; stroke-linecap: butt}</style>
 </defs>
 <g id="figure_1">
  <g id="patch_1">
   <path d="M 0 316.007719
L 923.330312 316.007719
L 923.330312 0
L 0 0
z
" style="fill: #ffffff"/>
  </g>
  <g id="axes_1">
   <g id="patch_2">
    <path d="M 246.530313 262.224
L 916.130313 262.224
L 916.130313 7.2
L 246.530313 7.2
z
" style="fill: #ffffff"/>
   </g>
   <g id="patch_3">
    <path d="M 246.530313 18.792
L 673.73697 18.792
L 673.73697 39.413887
L 246.530313 39.413887
z
" clip-path="url(#pc0d290f11c)" style="fill: #a7b5ca"/>
   </g>
   <g id="patch_4">
    <path d="M 246.530313 81.282566
L 335.686484 81.282566
L 335.686484 101.904453
L 246.530313 101.904453
z
" clip-path="url(#pc0d290f11c)" style="fill: #a7b5ca"/>
   </g>
   <g id="patch_5">
    <path d="M 246.530313 143.773132
L 320.827122 143.773132
L 320.827122 164.395019
L 246.530313 164.395019
z
" clip-path="url(#pc0d290f11c)" style="fill: #a7b5ca"/>
   </g>
   <g id="patch_6">
    <path d="M 246.530313 206.263698
L 261.389674 206.263698
L 261.389674 226.885585
L 246.530313 226.885585
z
" clip-path="url(#pc0d290f11c)" style="fill: #a7b5ca"/>
   </g>
   <g id="patch_7">
    <path d="M 246.530313 42.538415
L 770.671089 42.538415
L 770.671089 63.160302
L 246.530313 63.160302
z
" clip-path="url(#pc0d290f11c)" style="fill: #2863db"/>
   </g>
   <g id="patch_8">
    <path d="M 246.530313 105.028981
L 380.612837 105.028981
L 380.612837 125.650868
L 246.530313 125.650868
z
" clip-path="url(#pc0d290f11c)" style="fill: #2863db"/>
   </g>
   <g id="patch_9">
    <path d="M 246.530313 167.519547
L 368.423516 167.519547
L 368.423516 188.141434
L 246.530313 188.141434
z
" clip-path="url(#pc0d290f11c)" style="fill: #2863db"/>
   </g>
   <g id="patch_10">
    <path d="M 246.530313 230.010113
L 262.78274 230.010113
L 262.78274 250.632
L 246.530313 250.632
z
" clip-path="url(#pc0d290f11c)" style="fill: #2863db"/>
   </g>
   <g id="matplotlib.axis_1">
    <g id="xtick_1">
     <g id="line2d_1">
      <path d="M 246.530313 262.224
L 246.530313 7.2
" clip-path="url(#pc0d290f11c)" style="fill: none; stroke: #b0b0b0; stroke-opacity: 0.12; stroke-width: 0.8; stroke-linecap: square"/>
     </g>
     <g id="line2d_2">
      <defs>
       <path id="m0bc09daf80" d="M 0 0
L 0 3.5
" style="stroke: #44536b; stroke-width: 0.8"/>
      </defs>
      <g>
       <use xlink:href="#m0bc09daf80" x="246.530313" y="262.224" style="fill: #44536b; stroke: #44536b; stroke-width: 0.8"/>
      </g>
     </g>
     <g id="text_1">
      <!-- 0 -->
      <g style="fill: #44536b" transform="translate(243.030938 277.582281) scale(0.11 -0.11)">
       <defs>
        <path id="DejaVuSans-30" d="M 2034 4250
Q 1547 4250 1301 3770
Q 1056 3291 1056 2328
Q 1056 1369 1301 889
Q 1547 409 2034 409
Q 2525 409 2770 889
Q 3016 1369 3016 2328
Q 3016 3291 2770 3770
Q 2525 4250 2034 4250
z
M 2034 4750
Q 2819 4750 3233 4129
Q 3647 3509 3647 2328
Q 3647 1150 3233 529
Q 2819 -91 2034 -91
Q 1250 -91 836 529
Q 422 1150 422 2328
Q 422 3509 836 4129
Q 1250 4750 2034 4750
z
" transform="scale(0.015625)"/>
       </defs>
       <use xlink:href="#DejaVuSans-30"/>
      </g>
     </g>
    </g>
    <g id="xtick_2">
     <g id="line2d_3">
      <path d="M 376.54973 262.224
L 376.54973 7.2
" clip-path="url(#pc0d290f11c)" style="fill: none; stroke: #b0b0b0; stroke-opacity: 0.12; stroke-width: 0.8; stroke-linecap: square"/>
     </g>
     <g id="line2d_4">
      <g>
       <use xlink:href="#m0bc09daf80" x="376.54973" y="262.224" style="fill: #44536b; stroke: #44536b; stroke-width: 0.8"/>
      </g>
     </g>
     <g id="text_2">
      <!-- 20 -->
      <g style="fill: #44536b" transform="translate(369.55098 277.582281) scale(0.11 -0.11)">
       <defs>
        <path id="DejaVuSans-32" d="M 1228 531
L 3431 531
L 3431 0
L 469 0
L 469 531
Q 828 903 1448 1529
Q 2069 2156 2228 2338
Q 2531 2678 2651 2914
Q 2772 3150 2772 3378
Q 2772 3750 2511 3984
Q 2250 4219 1831 4219
Q 1534 4219 1204 4116
Q 875 4013 500 3803
L 500 4441
Q 881 4594 1212 4672
Q 1544 4750 1819 4750
Q 2544 4750 2975 4387
Q 3406 4025 3406 3419
Q 3406 3131 3298 2873
Q 3191 2616 2906 2266
Q 2828 2175 2409 1742
Q 1991 1309 1228 531
z
" transform="scale(0.015625)"/>
       </defs>
       <use xlink:href="#DejaVuSans-32"/>
       <use xlink:href="#DejaVuSans-30" transform="translate(63.623047 0)"/>
      </g>
     </g>
    </g>
    <g id="xtick_3">
     <g id="line2d_5">
      <path d="M 506.569147 262.224
L 506.569147 7.2
" clip-path="url(#pc0d290f11c)" style="fill: none; stroke: #b0b0b0; stroke-opacity: 0.12; stroke-width: 0.8; stroke-linecap: square"/>
     </g>
     <g id="line2d_6">
      <g>
       <use xlink:href="#m0bc09daf80" x="506.569147" y="262.224" style="fill: #44536b; stroke: #44536b; stroke-width: 0.8"/>
      </g>
     </g>
     <g id="text_3">
      <!-- 40 -->
      <g style="fill: #44536b" transform="translate(499.570397 277.582281) scale(0.11 -0.11)">
       <defs>
        <path id="DejaVuSans-34" d="M 2419 4116
L 825 1625
L 2419 1625
L 2419 4116
z
M 2253 4666
L 3047 4666
L 3047 1625
L 3713 1625
L 3713 1100
L 3047 1100
L 3047 0
L 2419 0
L 2419 1100
L 313 1100
L 313 1709
L 2253 4666
z
" transform="scale(0.015625)"/>
       </defs>
       <use xlink:href="#DejaVuSans-34"/>
       <use xlink:href="#DejaVuSans-30" transform="translate(63.623047 0)"/>
      </g>
     </g>
    </g>
    <g id="xtick_4">
     <g id="line2d_7">
      <path d="M 636.588565 262.224
L 636.588565 7.2
" clip-path="url(#pc0d290f11c)" style="fill: none; stroke: #b0b0b0; stroke-opacity: 0.12; stroke-width: 0.8; stroke-linecap: square"/>
     </g>
     <g id="line2d_8">
      <g>
       <use xlink:href="#m0bc09daf80" x="636.588565" y="262.224" style="fill: #44536b; stroke: #44536b; stroke-width: 0.8"/>
      </g>
     </g>
     <g id="text_4">
      <!-- 60 -->
      <g style="fill: #44536b" transform="translate(629.589815 277.582281) scale(0.11 -0.11)">
       <defs>
        <path id="DejaVuSans-36" d="M 2113 2584
Q 1688 2584 1439 2293
Q 1191 2003 1191 1497
Q 1191 994 1439 701
Q 1688 409 2113 409
Q 2538 409 2786 701
Q 3034 994 3034 1497
Q 3034 2003 2786 2293
Q 2538 2584 2113 2584
z
M 3366 4563
L 3366 3988
Q 3128 4100 2886 4159
Q 2644 4219 2406 4219
Q 1781 4219 1451 3797
Q 1122 3375 1075 2522
Q 1259 2794 1537 2939
Q 1816 3084 2150 3084
Q 2853 3084 3261 2657
Q 3669 2231 3669 1497
Q 3669 778 3244 343
Q 2819 -91 2113 -91
Q 1303 -91 875 529
Q 447 1150 447 2328
Q 447 3434 972 4092
Q 1497 4750 2381 4750
Q 2619 4750 2861 4703
Q 3103 4656 3366 4563
z
" transform="scale(0.015625)"/>
       </defs>
       <use xlink:href="#DejaVuSans-36"/>
       <use xlink:href="#DejaVuSans-30" transform="translate(63.623047 0)"/>
      </g>
     </g>
    </g>
    <g id="xtick_5">
     <g id="line2d_9">
      <path d="M 766.607982 262.224
L 766.607982 7.2
" clip-path="url(#pc0d290f11c)" style="fill: none; stroke: #b0b0b0; stroke-opacity: 0.12; stroke-width: 0.8; stroke-linecap: square"/>
     </g>
     <g id="line2d_10">
      <g>
       <use xlink:href="#m0bc09daf80" x="766.607982" y="262.224" style="fill: #44536b; stroke: #44536b; stroke-width: 0.8"/>
      </g>
     </g>
     <g id="text_5">
      <!-- 80 -->
      <g style="fill: #44536b" transform="translate(759.609232 277.582281) scale(0.11 -0.11)">
       <defs>
        <path id="DejaVuSans-38" d="M 2034 2216
Q 1584 2216 1326 1975
Q 1069 1734 1069 1313
Q 1069 891 1326 650
Q 1584 409 2034 409
Q 2484 409 2743 651
Q 3003 894 3003 1313
Q 3003 1734 2745 1975
Q 2488 2216 2034 2216
z
M 1403 2484
Q 997 2584 770 2862
Q 544 3141 544 3541
Q 544 4100 942 4425
Q 1341 4750 2034 4750
Q 2731 4750 3128 4425
Q 3525 4100 3525 3541
Q 3525 3141 3298 2862
Q 3072 2584 2669 2484
Q 3125 2378 3379 2068
Q 3634 1759 3634 1313
Q 3634 634 3220 271
Q 2806 -91 2034 -91
Q 1263 -91 848 271
Q 434 634 434 1313
Q 434 1759 690 2068
Q 947 2378 1403 2484
z
M 1172 3481
Q 1172 3119 1398 2916
Q 1625 2713 2034 2713
Q 2441 2713 2670 2916
Q 2900 3119 2900 3481
Q 2900 3844 2670 4047
Q 2441 4250 2034 4250
Q 1625 4250 1398 4047
Q 1172 3844 1172 3481
z
" transform="scale(0.015625)"/>
       </defs>
       <use xlink:href="#DejaVuSans-38"/>
       <use xlink:href="#DejaVuSans-30" transform="translate(63.623047 0)"/>
      </g>
     </g>
    </g>
    <g id="xtick_6">
     <g id="line2d_11">
      <path d="M 896.6274 262.224
L 896.6274 7.2
" clip-path="url(#pc0d290f11c)" style="fill: none; stroke: #b0b0b0; stroke-opacity: 0.12; stroke-width: 0.8; stroke-linecap: square"/>
     </g>
     <g id="line2d_12">
      <g>
       <use xlink:href="#m0bc09daf80" x="896.6274" y="262.224" style="fill: #44536b; stroke: #44536b; stroke-width: 0.8"/>
      </g>
     </g>
     <g id="text_6">
      <!-- 100 -->
      <g style="fill: #44536b" transform="translate(886.129275 277.582281) scale(0.11 -0.11)">
       <defs>
        <path id="DejaVuSans-31" d="M 794 531
L 1825 531
L 1825 4091
L 703 3866
L 703 4441
L 1819 4666
L 2450 4666
L 2450 531
L 3481 531
L 3481 0
L 794 0
L 794 531
z
" transform="scale(0.015625)"/>
       </defs>
       <use xlink:href="#DejaVuSans-31"/>
       <use xlink:href="#DejaVuSans-30" transform="translate(63.623047 0)"/>
       <use xlink:href="#DejaVuSans-30" transform="translate(127.246094 0)"/>
      </g>
     </g>
    </g>
    <g id="text_7">
     <!-- Доля поисковых визитов с входом на отдельное задание, % -->
     <g style="fill: #44536b" transform="translate(405.625078 292.228219) scale(0.11 -0.11)">
      <defs>
       <path id="DejaVuSans-414" d="M 1459 531
L 3522 531
L 3522 4134
L 2006 4134
L 2006 3472
Q 2006 1913 1656 878
Q 1584 666 1459 531
z
M 538 531
Q 956 728 1075 1103
Q 1378 2066 1378 3784
L 1378 4666
L 4153 4666
L 4153 531
L 4684 531
L 4684 -1003
L 4153 -1003
L 4153 0
L 847 0
L 847 -1003
L 316 -1003
L 316 531
L 538 531
z
" transform="scale(0.015625)"/>
       <path id="DejaVuSans-43e" d="M 1959 3097
Q 1497 3097 1228 2736
Q 959 2375 959 1747
Q 959 1119 1226 758
Q 1494 397 1959 397
Q 2419 397 2687 759
Q 2956 1122 2956 1747
Q 2956 2369 2687 2733
Q 2419 3097 1959 3097
z
M 1959 3584
Q 2709 3584 3137 3096
Q 3566 2609 3566 1747
Q 3566 888 3137 398
Q 2709 -91 1959 -91
Q 1206 -91 779 398
Q 353 888 353 1747
Q 353 2609 779 3096
Q 1206 3584 1959 3584
z
" transform="scale(0.015625)"/>
       <path id="DejaVuSans-43b" d="M 238 0
L 238 478
Q 806 566 981 959
Q 1194 1513 1194 2928
L 1194 3500
L 3559 3500
L 3559 0
L 2984 0
L 2984 3041
L 1769 3041
L 1769 2694
Q 1769 1344 1494 738
Q 1200 91 238 0
z
" transform="scale(0.015625)"/>
       <path id="DejaVuSans-44f" d="M 1181 2491
Q 1181 2231 1381 2084
Q 1581 1938 1953 1938
L 2728 1938
L 2728 3041
L 1953 3041
Q 1581 3041 1381 2897
Q 1181 2753 1181 2491
z
M 363 0
L 1431 1534
Q 1069 1616 828 1830
Q 588 2044 588 2491
Q 588 2997 923 3248
Q 1259 3500 1938 3500
L 3306 3500
L 3306 0
L 2728 0
L 2728 1478
L 2013 1478
L 981 0
L 363 0
z
" transform="scale(0.015625)"/>
       <path id="DejaVuSans-20" transform="scale(0.015625)"/>
       <path id="DejaVuSans-43f" d="M 3603 3500
L 3603 0
L 3025 0
L 3025 3041
L 1159 3041
L 1159 0
L 581 0
L 581 3500
L 3603 3500
z
" transform="scale(0.015625)"/>
       <path id="DejaVuSans-438" d="M 3578 3500
L 3578 0
L 3006 0
L 3006 2809
L 1319 0
L 581 0
L 581 3500
L 1153 3500
L 1153 697
L 2838 3500
L 3578 3500
z
" transform="scale(0.015625)"/>
       <path id="DejaVuSans-441" d="M 3122 3366
L 3122 2828
Q 2878 2963 2633 3030
Q 2388 3097 2138 3097
Q 1578 3097 1268 2742
Q 959 2388 959 1747
Q 959 1106 1268 751
Q 1578 397 2138 397
Q 2388 397 2633 464
Q 2878 531 3122 666
L 3122 134
Q 2881 22 2623 -34
Q 2366 -91 2075 -91
Q 1284 -91 818 406
Q 353 903 353 1747
Q 353 2603 823 3093
Q 1294 3584 2113 3584
Q 2378 3584 2631 3529
Q 2884 3475 3122 3366
z
" transform="scale(0.015625)"/>
       <path id="DejaVuSans-43a" d="M 581 3500
L 1153 3500
L 1153 1856
L 2775 3500
L 3481 3500
L 2144 2147
L 3653 0
L 3009 0
L 1769 1766
L 1153 1141
L 1153 0
L 581 0
L 581 3500
z
" transform="scale(0.015625)"/>
       <path id="DejaVuSans-432" d="M 1156 1613
L 1156 459
L 1975 459
Q 2369 459 2575 607
Q 2781 756 2781 1038
Q 2781 1319 2575 1466
Q 2369 1613 1975 1613
L 1156 1613
z
M 1156 3041
L 1156 2072
L 1913 2072
Q 2238 2072 2444 2201
Q 2650 2331 2650 2563
Q 2650 2794 2444 2917
Q 2238 3041 1913 3041
L 1156 3041
z
M 581 3500
L 1950 3500
Q 2566 3500 2897 3275
Q 3228 3050 3228 2634
Q 3228 2313 3059 2123
Q 2891 1934 2559 1888
Q 2956 1813 3175 1575
Q 3394 1338 3394 981
Q 3394 513 3033 256
Q 2672 0 2003 0
L 581 0
L 581 3500
z
" transform="scale(0.015625)"/>
       <path id="DejaVuSans-44b" d="M 3907 3500
L 4482 3500
L 4482 0
L 3907 0
L 3907 3500
z
M 4195 3584
L 4195 3584
z
M 2781 1038
Q 2781 1319 2576 1466
Q 2372 1613 1978 1613
L 1159 1613
L 1159 459
L 1978 459
Q 2372 459 2576 607
Q 2781 756 2781 1038
z
M 581 3500
L 1159 3500
L 1159 2072
L 2003 2072
Q 2672 2072 3033 1817
Q 3394 1563 3394 1038
Q 3394 513 3033 256
Q 2672 0 2003 0
L 581 0
L 581 3500
z
" transform="scale(0.015625)"/>
       <path id="DejaVuSans-445" d="M 3513 3500
L 2247 1797
L 3578 0
L 2900 0
L 1881 1375
L 863 0
L 184 0
L 1544 1831
L 300 3500
L 978 3500
L 1906 2253
L 2834 3500
L 3513 3500
z
" transform="scale(0.015625)"/>
       <path id="DejaVuSans-437" d="M 2206 1888
Q 2594 1813 2809 1584
Q 3025 1356 3025 1019
Q 3025 478 2622 193
Q 2219 -91 1475 -91
Q 1225 -91 961 -47
Q 697 -3 416 84
L 416 619
Q 638 503 903 445
Q 1169 388 1459 388
Q 1931 388 2195 563
Q 2459 738 2459 1019
Q 2459 1294 2225 1461
Q 1991 1628 1563 1628
L 1100 1628
L 1100 2103
L 1584 2103
Q 1947 2103 2158 2242
Q 2369 2381 2369 2600
Q 2369 2800 2151 2944
Q 1934 3088 1563 3088
Q 1341 3088 1089 3047
Q 838 3006 534 2916
L 534 3438
Q 841 3513 1106 3550
Q 1372 3588 1609 3588
Q 2222 3588 2576 3342
Q 2931 3097 2931 2656
Q 2931 2366 2743 2164
Q 2556 1963 2206 1888
z
" transform="scale(0.015625)"/>
       <path id="DejaVuSans-442" d="M 188 3500
L 3541 3500
L 3541 3041
L 2147 3041
L 2147 0
L 1581 0
L 1581 3041
L 188 3041
L 188 3500
z
" transform="scale(0.015625)"/>
       <path id="DejaVuSans-434" d="M 1384 459
L 3053 459
L 3053 3041
L 1844 3041
L 1844 2603
Q 1844 1316 1475 628
L 1384 459
z
M 550 459
Q 834 584 959 850
Q 1266 1509 1266 2838
L 1266 3500
L 3631 3500
L 3631 459
L 4091 459
L 4091 -884
L 3631 -884
L 3631 0
L 794 0
L 794 -884
L 334 -884
L 334 459
L 550 459
z
" transform="scale(0.015625)"/>
       <path id="DejaVuSans-43c" d="M 581 3500
L 1422 3500
L 2416 1156
L 3413 3500
L 4247 3500
L 4247 0
L 3669 0
L 3669 2950
L 2703 672
L 2128 672
L 1159 2950
L 1159 0
L 581 0
L 581 3500
z
" transform="scale(0.015625)"/>
       <path id="DejaVuSans-43d" d="M 581 3500
L 1159 3500
L 1159 2072
L 3025 2072
L 3025 3500
L 3603 3500
L 3603 0
L 3025 0
L 3025 1613
L 1159 1613
L 1159 0
L 581 0
L 581 3500
z
" transform="scale(0.015625)"/>
       <path id="DejaVuSans-430" d="M 2194 1759
Q 1497 1759 1228 1600
Q 959 1441 959 1056
Q 959 750 1161 570
Q 1363 391 1709 391
Q 2188 391 2477 730
Q 2766 1069 2766 1631
L 2766 1759
L 2194 1759
z
M 3341 1997
L 3341 0
L 2766 0
L 2766 531
Q 2569 213 2275 61
Q 1981 -91 1556 -91
Q 1019 -91 701 211
Q 384 513 384 1019
Q 384 1609 779 1909
Q 1175 2209 1959 2209
L 2766 2209
L 2766 2266
Q 2766 2663 2505 2880
Q 2244 3097 1772 3097
Q 1472 3097 1187 3025
Q 903 2953 641 2809
L 641 3341
Q 956 3463 1253 3523
Q 1550 3584 1831 3584
Q 2591 3584 2966 3190
Q 3341 2797 3341 1997
z
" transform="scale(0.015625)"/>
       <path id="DejaVuSans-435" d="M 3597 1894
L 3597 1613
L 953 1613
Q 991 1019 1311 708
Q 1631 397 2203 397
Q 2534 397 2845 478
Q 3156 559 3463 722
L 3463 178
Q 3153 47 2828 -22
Q 2503 -91 2169 -91
Q 1331 -91 842 396
Q 353 884 353 1716
Q 353 2575 817 3079
Q 1281 3584 2069 3584
Q 2775 3584 3186 3129
Q 3597 2675 3597 1894
z
M 3022 2063
Q 3016 2534 2758 2815
Q 2500 3097 2075 3097
Q 1594 3097 1305 2825
Q 1016 2553 972 2059
L 3022 2063
z
" transform="scale(0.015625)"/>
       <path id="DejaVuSans-44c" d="M 2781 1038
Q 2781 1319 2576 1466
Q 2372 1613 1978 1613
L 1159 1613
L 1159 459
L 1978 459
Q 2372 459 2576 607
Q 2781 756 2781 1038
z
M 581 3500
L 1159 3500
L 1159 2072
L 2003 2072
Q 2672 2072 3033 1817
Q 3394 1563 3394 1038
Q 3394 513 3033 256
Q 2672 0 2003 0
L 581 0
L 581 3500
z
" transform="scale(0.015625)"/>
       <path id="DejaVuSans-2c" d="M 750 794
L 1409 794
L 1409 256
L 897 -744
L 494 -744
L 750 256
L 750 794
z
" transform="scale(0.015625)"/>
       <path id="DejaVuSans-25" d="M 4653 2053
Q 4381 2053 4226 1822
Q 4072 1591 4072 1178
Q 4072 772 4226 539
Q 4381 306 4653 306
Q 4919 306 5073 539
Q 5228 772 5228 1178
Q 5228 1588 5073 1820
Q 4919 2053 4653 2053
z
M 4653 2450
Q 5147 2450 5437 2106
Q 5728 1763 5728 1178
Q 5728 594 5436 251
Q 5144 -91 4653 -91
Q 4153 -91 3862 251
Q 3572 594 3572 1178
Q 3572 1766 3864 2108
Q 4156 2450 4653 2450
z
M 1428 4353
Q 1159 4353 1004 4120
Q 850 3888 850 3481
Q 850 3069 1003 2837
Q 1156 2606 1428 2606
Q 1700 2606 1854 2837
Q 2009 3069 2009 3481
Q 2009 3884 1853 4118
Q 1697 4353 1428 4353
z
M 4250 4750
L 4750 4750
L 1831 -91
L 1331 -91
L 4250 4750
z
M 1428 4750
Q 1922 4750 2215 4408
Q 2509 4066 2509 3481
Q 2509 2891 2217 2550
Q 1925 2209 1428 2209
Q 931 2209 642 2551
Q 353 2894 353 3481
Q 353 4063 643 4406
Q 934 4750 1428 4750
z
" transform="scale(0.015625)"/>
      </defs>
      <use xlink:href="#DejaVuSans-414"/>
      <use xlink:href="#DejaVuSans-43e" transform="translate(78.125 0)"/>
      <use xlink:href="#DejaVuSans-43b" transform="translate(139.306641 0)"/>
      <use xlink:href="#DejaVuSans-44f" transform="translate(203.222656 0)"/>
      <use xlink:href="#DejaVuSans-20" transform="translate(263.378906 0)"/>
      <use xlink:href="#DejaVuSans-43f" transform="translate(295.166016 0)"/>
      <use xlink:href="#DejaVuSans-43e" transform="translate(360.546875 0)"/>
      <use xlink:href="#DejaVuSans-438" transform="translate(421.728516 0)"/>
      <use xlink:href="#DejaVuSans-441" transform="translate(486.71875 0)"/>
      <use xlink:href="#DejaVuSans-43a" transform="translate(541.699219 0)"/>
      <use xlink:href="#DejaVuSans-43e" transform="translate(602.099609 0)"/>
      <use xlink:href="#DejaVuSans-432" transform="translate(663.28125 0)"/>
      <use xlink:href="#DejaVuSans-44b" transform="translate(722.216797 0)"/>
      <use xlink:href="#DejaVuSans-445" transform="translate(801.171875 0)"/>
      <use xlink:href="#DejaVuSans-20" transform="translate(860.351562 0)"/>
      <use xlink:href="#DejaVuSans-432" transform="translate(892.138672 0)"/>
      <use xlink:href="#DejaVuSans-438" transform="translate(951.074219 0)"/>
      <use xlink:href="#DejaVuSans-437" transform="translate(1016.064453 0)"/>
      <use xlink:href="#DejaVuSans-438" transform="translate(1069.238281 0)"/>
      <use xlink:href="#DejaVuSans-442" transform="translate(1134.228516 0)"/>
      <use xlink:href="#DejaVuSans-43e" transform="translate(1192.480469 0)"/>
      <use xlink:href="#DejaVuSans-432" transform="translate(1253.662109 0)"/>
      <use xlink:href="#DejaVuSans-20" transform="translate(1312.597656 0)"/>
      <use xlink:href="#DejaVuSans-441" transform="translate(1344.384766 0)"/>
      <use xlink:href="#DejaVuSans-20" transform="translate(1399.365234 0)"/>
      <use xlink:href="#DejaVuSans-432" transform="translate(1431.152344 0)"/>
      <use xlink:href="#DejaVuSans-445" transform="translate(1490.087891 0)"/>
      <use xlink:href="#DejaVuSans-43e" transform="translate(1549.267578 0)"/>
      <use xlink:href="#DejaVuSans-434" transform="translate(1610.449219 0)"/>
      <use xlink:href="#DejaVuSans-43e" transform="translate(1679.589844 0)"/>
      <use xlink:href="#DejaVuSans-43c" transform="translate(1740.771484 0)"/>
      <use xlink:href="#DejaVuSans-20" transform="translate(1816.210938 0)"/>
      <use xlink:href="#DejaVuSans-43d" transform="translate(1847.998047 0)"/>
      <use xlink:href="#DejaVuSans-430" transform="translate(1913.378906 0)"/>
      <use xlink:href="#DejaVuSans-20" transform="translate(1974.658203 0)"/>
      <use xlink:href="#DejaVuSans-43e" transform="translate(2006.445312 0)"/>
      <use xlink:href="#DejaVuSans-442" transform="translate(2067.626953 0)"/>
      <use xlink:href="#DejaVuSans-434" transform="translate(2125.878906 0)"/>
      <use xlink:href="#DejaVuSans-435" transform="translate(2195.019531 0)"/>
      <use xlink:href="#DejaVuSans-43b" transform="translate(2256.542969 0)"/>
      <use xlink:href="#DejaVuSans-44c" transform="translate(2320.458984 0)"/>
      <use xlink:href="#DejaVuSans-43d" transform="translate(2379.394531 0)"/>
      <use xlink:href="#DejaVuSans-43e" transform="translate(2444.775391 0)"/>
      <use xlink:href="#DejaVuSans-435" transform="translate(2505.957031 0)"/>
      <use xlink:href="#DejaVuSans-20" transform="translate(2567.480469 0)"/>
      <use xlink:href="#DejaVuSans-437" transform="translate(2599.267578 0)"/>
      <use xlink:href="#DejaVuSans-430" transform="translate(2652.441406 0)"/>
      <use xlink:href="#DejaVuSans-434" transform="translate(2713.720703 0)"/>
      <use xlink:href="#DejaVuSans-430" transform="translate(2782.861328 0)"/>
      <use xlink:href="#DejaVuSans-43d" transform="translate(2844.140625 0)"/>
      <use xlink:href="#DejaVuSans-438" transform="translate(2909.521484 0)"/>
      <use xlink:href="#DejaVuSans-435" transform="translate(2974.511719 0)"/>
      <use xlink:href="#DejaVuSans-2c" transform="translate(3036.035156 0)"/>
      <use xlink:href="#DejaVuSans-20" transform="translate(3067.822266 0)"/>
      <use xlink:href="#DejaVuSans-25" transform="translate(3099.609375 0)"/>
     </g>
    </g>
   </g>
   <g id="matplotlib.axis_2">
    <g id="ytick_1">
     <g id="line2d_13">
      <defs>
       <path id="mbc00bbda64" d="M 0 0
L -3.5 0
" style="stroke: #44536b; stroke-width: 0.8"/>
      </defs>
      <g>
       <use xlink:href="#mbc00bbda64" x="246.530313" y="40.976151" style="fill: #44536b; stroke: #44536b; stroke-width: 0.8"/>
      </g>
     </g>
     <g id="text_8">
      <!-- Открыли хотя бы одно решение -->
      <g style="fill: #44536b" transform="translate(52.301719 45.248963) scale(0.11 -0.11)">
       <defs>
        <path id="DejaVuSans-41e" d="M 2522 4238
Q 1834 4238 1429 3725
Q 1025 3213 1025 2328
Q 1025 1447 1429 934
Q 1834 422 2522 422
Q 3209 422 3611 934
Q 4013 1447 4013 2328
Q 4013 3213 3611 3725
Q 3209 4238 2522 4238
z
M 2522 4750
Q 3503 4750 4090 4092
Q 4678 3434 4678 2328
Q 4678 1225 4090 567
Q 3503 -91 2522 -91
Q 1538 -91 948 565
Q 359 1222 359 2328
Q 359 3434 948 4092
Q 1538 4750 2522 4750
z
" transform="scale(0.015625)"/>
        <path id="DejaVuSans-440" d="M 1159 525
L 1159 -1331
L 581 -1331
L 581 3500
L 1159 3500
L 1159 2969
Q 1341 3281 1617 3432
Q 1894 3584 2278 3584
Q 2916 3584 3314 3078
Q 3713 2572 3713 1747
Q 3713 922 3314 415
Q 2916 -91 2278 -91
Q 1894 -91 1617 61
Q 1341 213 1159 525
z
M 3116 1747
Q 3116 2381 2855 2742
Q 2594 3103 2138 3103
Q 1681 3103 1420 2742
Q 1159 2381 1159 1747
Q 1159 1113 1420 752
Q 1681 391 2138 391
Q 2594 391 2855 752
Q 3116 1113 3116 1747
z
" transform="scale(0.015625)"/>
        <path id="DejaVuSans-431" d="M 1991 3584
Q 2741 3584 3169 3096
Q 3597 2609 3597 1747
Q 3597 888 3169 398
Q 2741 -91 1991 -91
Q 1238 -91 822 384
Q 406 859 384 1747
L 366 2463
Q 350 2834 350 2963
Q 350 3463 531 3831
Q 816 4409 1308 4659
Q 1800 4909 2625 4916
Q 3006 4919 3175 4972
L 3334 4516
Q 3181 4453 3041 4450
L 2259 4397
Q 1866 4369 1628 4231
Q 1006 3866 947 3388
L 925 3213
Q 1331 3584 1991 3584
z
M 1991 3097
Q 1528 3097 1259 2736
Q 991 2375 991 1747
Q 991 1119 1258 758
Q 1525 397 1991 397
Q 2450 397 2719 759
Q 2988 1122 2988 1747
Q 2988 2369 2719 2733
Q 2450 3097 1991 3097
z
" transform="scale(0.015625)"/>
        <path id="DejaVuSans-448" d="M 3216 459
L 4697 459
L 4697 3500
L 5275 3500
L 5275 0
L 581 0
L 581 3500
L 1159 3500
L 1159 459
L 2638 459
L 2638 3500
L 3216 3500
L 3216 459
z
" transform="scale(0.015625)"/>
       </defs>
       <use xlink:href="#DejaVuSans-41e"/>
       <use xlink:href="#DejaVuSans-442" transform="translate(78.710938 0)"/>
       <use xlink:href="#DejaVuSans-43a" transform="translate(136.962891 0)"/>
       <use xlink:href="#DejaVuSans-440" transform="translate(197.363281 0)"/>
       <use xlink:href="#DejaVuSans-44b" transform="translate(260.839844 0)"/>
       <use xlink:href="#DejaVuSans-43b" transform="translate(339.794922 0)"/>
       <use xlink:href="#DejaVuSans-438" transform="translate(403.710938 0)"/>
       <use xlink:href="#DejaVuSans-20" transform="translate(468.701172 0)"/>
       <use xlink:href="#DejaVuSans-445" transform="translate(500.488281 0)"/>
       <use xlink:href="#DejaVuSans-43e" transform="translate(559.667969 0)"/>
       <use xlink:href="#DejaVuSans-442" transform="translate(620.849609 0)"/>
       <use xlink:href="#DejaVuSans-44f" transform="translate(679.101562 0)"/>
       <use xlink:href="#DejaVuSans-20" transform="translate(739.257812 0)"/>
       <use xlink:href="#DejaVuSans-431" transform="translate(771.044922 0)"/>
       <use xlink:href="#DejaVuSans-44b" transform="translate(832.714844 0)"/>
       <use xlink:href="#DejaVuSans-20" transform="translate(911.669922 0)"/>
       <use xlink:href="#DejaVuSans-43e" transform="translate(943.457031 0)"/>
       <use xlink:href="#DejaVuSans-434" transform="translate(1004.638672 0)"/>
       <use xlink:href="#DejaVuSans-43d" transform="translate(1073.779297 0)"/>
       <use xlink:href="#DejaVuSans-43e" transform="translate(1139.160156 0)"/>
       <use xlink:href="#DejaVuSans-20" transform="translate(1200.341797 0)"/>
       <use xlink:href="#DejaVuSans-440" transform="translate(1232.128906 0)"/>
       <use xlink:href="#DejaVuSans-435" transform="translate(1295.605469 0)"/>
       <use xlink:href="#DejaVuSans-448" transform="translate(1357.128906 0)"/>
       <use xlink:href="#DejaVuSans-435" transform="translate(1448.632812 0)"/>
       <use xlink:href="#DejaVuSans-43d" transform="translate(1510.15625 0)"/>
       <use xlink:href="#DejaVuSans-438" transform="translate(1575.537109 0)"/>
       <use xlink:href="#DejaVuSans-435" transform="translate(1640.527344 0)"/>
      </g>
     </g>
    </g>
    <g id="ytick_2">
     <g id="line2d_14">
      <g>
       <use xlink:href="#mbc00bbda64" x="246.530313" y="103.466717" style="fill: #44536b; stroke: #44536b; stroke-width: 0.8"/>
      </g>
     </g>
     <g id="text_9">
      <!-- Открыли страницы ≥ 2 разных заданий -->
      <g style="fill: #44536b" transform="translate(7.2 107.645858) scale(0.11 -0.11)">
       <defs>
        <path id="DejaVuSans-446" d="M 3603 0
L 581 0
L 581 3500
L 1159 3500
L 1159 459
L 3025 459
L 3025 3500
L 3603 3500
L 3603 459
L 4063 459
L 4063 -884
L 3603 -884
L 3603 0
z
" transform="scale(0.015625)"/>
        <path id="DejaVuSans-2265" d="M 678 3175
L 678 3725
L 4684 2578
L 4684 2047
L 678 897
L 678 1453
L 3681 2309
L 678 3175
z
M 4684 531
L 4684 0
L 678 0
L 678 531
L 4684 531
z
" transform="scale(0.015625)"/>
        <path id="DejaVuSans-439" d="M 3578 3500
L 3578 0
L 3006 0
L 3006 2809
L 1319 0
L 581 0
L 581 3500
L 1153 3500
L 1153 697
L 2838 3500
L 3578 3500
z
M 1102 4833
L 1471 4833
Q 1505 4599 1656 4481
Q 1808 4364 2080 4364
Q 2349 4364 2499 4480
Q 2649 4596 2689 4833
L 3058 4833
Q 3027 4386 2780 4161
Q 2533 3936 2080 3936
Q 1627 3936 1380 4161
Q 1133 4386 1102 4833
z
" transform="scale(0.015625)"/>
       </defs>
       <use xlink:href="#DejaVuSans-41e"/>
       <use xlink:href="#DejaVuSans-442" transform="translate(78.710938 0)"/>
       <use xlink:href="#DejaVuSans-43a" transform="translate(136.962891 0)"/>
       <use xlink:href="#DejaVuSans-440" transform="translate(197.363281 0)"/>
       <use xlink:href="#DejaVuSans-44b" transform="translate(260.839844 0)"/>
       <use xlink:href="#DejaVuSans-43b" transform="translate(339.794922 0)"/>
       <use xlink:href="#DejaVuSans-438" transform="translate(403.710938 0)"/>
       <use xlink:href="#DejaVuSans-20" transform="translate(468.701172 0)"/>
       <use xlink:href="#DejaVuSans-441" transform="translate(500.488281 0)"/>
       <use xlink:href="#DejaVuSans-442" transform="translate(555.46875 0)"/>
       <use xlink:href="#DejaVuSans-440" transform="translate(613.720703 0)"/>
       <use xlink:href="#DejaVuSans-430" transform="translate(677.197266 0)"/>
       <use xlink:href="#DejaVuSans-43d" transform="translate(738.476562 0)"/>
       <use xlink:href="#DejaVuSans-438" transform="translate(803.857422 0)"/>
       <use xlink:href="#DejaVuSans-446" transform="translate(868.847656 0)"/>
       <use xlink:href="#DejaVuSans-44b" transform="translate(936.914062 0)"/>
       <use xlink:href="#DejaVuSans-20" transform="translate(1015.869141 0)"/>
       <use xlink:href="#DejaVuSans-2265" transform="translate(1047.65625 0)"/>
       <use xlink:href="#DejaVuSans-20" transform="translate(1131.445312 0)"/>
       <use xlink:href="#DejaVuSans-32" transform="translate(1163.232422 0)"/>
       <use xlink:href="#DejaVuSans-20" transform="translate(1226.855469 0)"/>
       <use xlink:href="#DejaVuSans-440" transform="translate(1258.642578 0)"/>
       <use xlink:href="#DejaVuSans-430" transform="translate(1322.119141 0)"/>
       <use xlink:href="#DejaVuSans-437" transform="translate(1383.398438 0)"/>
       <use xlink:href="#DejaVuSans-43d" transform="translate(1436.572266 0)"/>
       <use xlink:href="#DejaVuSans-44b" transform="translate(1501.953125 0)"/>
       <use xlink:href="#DejaVuSans-445" transform="translate(1580.908203 0)"/>
       <use xlink:href="#DejaVuSans-20" transform="translate(1640.087891 0)"/>
       <use xlink:href="#DejaVuSans-437" transform="translate(1671.875 0)"/>
       <use xlink:href="#DejaVuSans-430" transform="translate(1725.048828 0)"/>
       <use xlink:href="#DejaVuSans-434" transform="translate(1786.328125 0)"/>
       <use xlink:href="#DejaVuSans-430" transform="translate(1855.46875 0)"/>
       <use xlink:href="#DejaVuSans-43d" transform="translate(1916.748047 0)"/>
       <use xlink:href="#DejaVuSans-438" transform="translate(1982.128906 0)"/>
       <use xlink:href="#DejaVuSans-439" transform="translate(2047.119141 0)"/>
      </g>
     </g>
    </g>
    <g id="ytick_3">
     <g id="line2d_15">
      <g>
       <use xlink:href="#mbc00bbda64" x="246.530313" y="165.957283" style="fill: #44536b; stroke: #44536b; stroke-width: 0.8"/>
      </g>
     </g>
     <g id="text_10">
      <!-- Открыли решения ≥ 2 разных заданий -->
      <g style="fill: #44536b" transform="translate(12.349375 170.136424) scale(0.11 -0.11)">
       <use xlink:href="#DejaVuSans-41e"/>
       <use xlink:href="#DejaVuSans-442" transform="translate(78.710938 0)"/>
       <use xlink:href="#DejaVuSans-43a" transform="translate(136.962891 0)"/>
       <use xlink:href="#DejaVuSans-440" transform="translate(197.363281 0)"/>
       <use xlink:href="#DejaVuSans-44b" transform="translate(260.839844 0)"/>
       <use xlink:href="#DejaVuSans-43b" transform="translate(339.794922 0)"/>
       <use xlink:href="#DejaVuSans-438" transform="translate(403.710938 0)"/>
       <use xlink:href="#DejaVuSans-20" transform="translate(468.701172 0)"/>
       <use xlink:href="#DejaVuSans-440" transform="translate(500.488281 0)"/>
       <use xlink:href="#DejaVuSans-435" transform="translate(563.964844 0)"/>
       <use xlink:href="#DejaVuSans-448" transform="translate(625.488281 0)"/>
       <use xlink:href="#DejaVuSans-435" transform="translate(716.992188 0)"/>
       <use xlink:href="#DejaVuSans-43d" transform="translate(778.515625 0)"/>
       <use xlink:href="#DejaVuSans-438" transform="translate(843.896484 0)"/>
       <use xlink:href="#DejaVuSans-44f" transform="translate(908.886719 0)"/>
       <use xlink:href="#DejaVuSans-20" transform="translate(969.042969 0)"/>
       <use xlink:href="#DejaVuSans-2265" transform="translate(1000.830078 0)"/>
       <use xlink:href="#DejaVuSans-20" transform="translate(1084.619141 0)"/>
       <use xlink:href="#DejaVuSans-32" transform="translate(1116.40625 0)"/>
       <use xlink:href="#DejaVuSans-20" transform="translate(1180.029297 0)"/>
       <use xlink:href="#DejaVuSans-440" transform="translate(1211.816406 0)"/>
       <use xlink:href="#DejaVuSans-430" transform="translate(1275.292969 0)"/>
       <use xlink:href="#DejaVuSans-437" transform="translate(1336.572266 0)"/>
       <use xlink:href="#DejaVuSans-43d" transform="translate(1389.746094 0)"/>
       <use xlink:href="#DejaVuSans-44b" transform="translate(1455.126953 0)"/>
       <use xlink:href="#DejaVuSans-445" transform="translate(1534.082031 0)"/>
       <use xlink:href="#DejaVuSans-20" transform="translate(1593.261719 0)"/>
       <use xlink:href="#DejaVuSans-437" transform="translate(1625.048828 0)"/>
       <use xlink:href="#DejaVuSans-430" transform="translate(1678.222656 0)"/>
       <use xlink:href="#DejaVuSans-434" transform="translate(1739.501953 0)"/>
       <use xlink:href="#DejaVuSans-430" transform="translate(1808.642578 0)"/>
       <use xlink:href="#DejaVuSans-43d" transform="translate(1869.921875 0)"/>
       <use xlink:href="#DejaVuSans-438" transform="translate(1935.302734 0)"/>
       <use xlink:href="#DejaVuSans-439" transform="translate(2000.292969 0)"/>
      </g>
     </g>
    </g>
    <g id="ytick_4">
     <g id="line2d_16">
      <g>
       <use xlink:href="#mbc00bbda64" x="246.530313" y="228.447849" style="fill: #44536b; stroke: #44536b; stroke-width: 0.8"/>
      </g>
     </g>
     <g id="text_11">
      <!-- Использовали кнопку «Далее» -->
      <g style="fill: #44536b" transform="translate(60.56375 232.62699) scale(0.11 -0.11)">
       <defs>
        <path id="DejaVuSans-418" d="M 4159 4666
L 4159 0
L 3547 0
L 3547 3903
L 1478 0
L 628 0
L 628 4666
L 1241 4666
L 1241 763
L 3309 4666
L 4159 4666
z
" transform="scale(0.015625)"/>
        <path id="DejaVuSans-443" d="M 2059 -325
Q 1816 -950 1584 -1140
Q 1353 -1331 966 -1331
L 506 -1331
L 506 -850
L 844 -850
Q 1081 -850 1212 -737
Q 1344 -625 1503 -206
L 1606 56
L 191 3500
L 800 3500
L 1894 763
L 2988 3500
L 3597 3500
L 2059 -325
z
" transform="scale(0.015625)"/>
        <path id="DejaVuSans-ab" d="M 3316 3309
L 3316 2713
L 2375 1875
L 3316 1038
L 3316 441
L 1850 1747
L 1850 2003
L 3316 3309
z
M 1959 3309
L 1959 2713
L 1019 1875
L 1959 1038
L 1959 441
L 494 1747
L 494 2003
L 1959 3309
z
" transform="scale(0.015625)"/>
        <path id="DejaVuSans-bb" d="M 603 3309
L 2069 2003
L 2069 1747
L 603 441
L 603 1038
L 1544 1875
L 603 2713
L 603 3309
z
M 1959 3309
L 3425 2003
L 3425 1747
L 1959 441
L 1959 1038
L 2900 1875
L 1959 2713
L 1959 3309
z
" transform="scale(0.015625)"/>
       </defs>
       <use xlink:href="#DejaVuSans-418"/>
       <use xlink:href="#DejaVuSans-441" transform="translate(74.804688 0)"/>
       <use xlink:href="#DejaVuSans-43f" transform="translate(129.785156 0)"/>
       <use xlink:href="#DejaVuSans-43e" transform="translate(195.166016 0)"/>
       <use xlink:href="#DejaVuSans-43b" transform="translate(256.347656 0)"/>
       <use xlink:href="#DejaVuSans-44c" transform="translate(320.263672 0)"/>
       <use xlink:href="#DejaVuSans-437" transform="translate(379.199219 0)"/>
       <use xlink:href="#DejaVuSans-43e" transform="translate(432.373047 0)"/>
       <use xlink:href="#DejaVuSans-432" transform="translate(493.554688 0)"/>
       <use xlink:href="#DejaVuSans-430" transform="translate(552.490234 0)"/>
       <use xlink:href="#DejaVuSans-43b" transform="translate(613.769531 0)"/>
       <use xlink:href="#DejaVuSans-438" transform="translate(677.685547 0)"/>
       <use xlink:href="#DejaVuSans-20" transform="translate(742.675781 0)"/>
       <use xlink:href="#DejaVuSans-43a" transform="translate(774.462891 0)"/>
       <use xlink:href="#DejaVuSans-43d" transform="translate(834.863281 0)"/>
       <use xlink:href="#DejaVuSans-43e" transform="translate(900.244141 0)"/>
       <use xlink:href="#DejaVuSans-43f" transform="translate(961.425781 0)"/>
       <use xlink:href="#DejaVuSans-43a" transform="translate(1026.806641 0)"/>
       <use xlink:href="#DejaVuSans-443" transform="translate(1087.207031 0)"/>
       <use xlink:href="#DejaVuSans-20" transform="translate(1146.386719 0)"/>
       <use xlink:href="#DejaVuSans-ab" transform="translate(1178.173828 0)"/>
       <use xlink:href="#DejaVuSans-414" transform="translate(1239.355469 0)"/>
       <use xlink:href="#DejaVuSans-430" transform="translate(1317.480469 0)"/>
       <use xlink:href="#DejaVuSans-43b" transform="translate(1378.759766 0)"/>
       <use xlink:href="#DejaVuSans-435" transform="translate(1442.675781 0)"/>
       <use xlink:href="#DejaVuSans-435" transform="translate(1504.199219 0)"/>
       <use xlink:href="#DejaVuSans-bb" transform="translate(1565.722656 0)"/>
      </g>
     </g>
    </g>
   </g>
   <g id="text_12">
    <!-- 115 · 65,7% -->
    <g style="fill: #172a44" transform="translate(678.73697 31.862318) scale(0.1 -0.1)">
     <defs>
      <path id="DejaVuSans-35" d="M 691 4666
L 3169 4666
L 3169 4134
L 1269 4134
L 1269 2991
Q 1406 3038 1543 3061
Q 1681 3084 1819 3084
Q 2600 3084 3056 2656
Q 3513 2228 3513 1497
Q 3513 744 3044 326
Q 2575 -91 1722 -91
Q 1428 -91 1123 -41
Q 819 9 494 109
L 494 744
Q 775 591 1075 516
Q 1375 441 1709 441
Q 2250 441 2565 725
Q 2881 1009 2881 1497
Q 2881 1984 2565 2268
Q 2250 2553 1709 2553
Q 1456 2553 1204 2497
Q 953 2441 691 2322
L 691 4666
z
" transform="scale(0.015625)"/>
      <path id="DejaVuSans-b7" d="M 684 2619
L 1344 2619
L 1344 1825
L 684 1825
L 684 2619
z
" transform="scale(0.015625)"/>
      <path id="DejaVuSans-37" d="M 525 4666
L 3525 4666
L 3525 4397
L 1831 0
L 1172 0
L 2766 4134
L 525 4134
L 525 4666
z
" transform="scale(0.015625)"/>
     </defs>
     <use xlink:href="#DejaVuSans-31"/>
     <use xlink:href="#DejaVuSans-31" transform="translate(63.623047 0)"/>
     <use xlink:href="#DejaVuSans-35" transform="translate(127.246094 0)"/>
     <use xlink:href="#DejaVuSans-20" transform="translate(190.869141 0)"/>
     <use xlink:href="#DejaVuSans-b7" transform="translate(222.65625 0)"/>
     <use xlink:href="#DejaVuSans-20" transform="translate(254.443359 0)"/>
     <use xlink:href="#DejaVuSans-36" transform="translate(286.230469 0)"/>
     <use xlink:href="#DejaVuSans-35" transform="translate(349.853516 0)"/>
     <use xlink:href="#DejaVuSans-2c" transform="translate(413.476562 0)"/>
     <use xlink:href="#DejaVuSans-37" transform="translate(445.263672 0)"/>
     <use xlink:href="#DejaVuSans-25" transform="translate(508.886719 0)"/>
    </g>
   </g>
   <g id="text_13">
    <!-- 24 · 13,7% -->
    <g style="fill: #172a44" transform="translate(340.686484 94.352884) scale(0.1 -0.1)">
     <defs>
      <path id="DejaVuSans-33" d="M 2597 2516
Q 3050 2419 3304 2112
Q 3559 1806 3559 1356
Q 3559 666 3084 287
Q 2609 -91 1734 -91
Q 1441 -91 1130 -33
Q 819 25 488 141
L 488 750
Q 750 597 1062 519
Q 1375 441 1716 441
Q 2309 441 2620 675
Q 2931 909 2931 1356
Q 2931 1769 2642 2001
Q 2353 2234 1838 2234
L 1294 2234
L 1294 2753
L 1863 2753
Q 2328 2753 2575 2939
Q 2822 3125 2822 3475
Q 2822 3834 2567 4026
Q 2313 4219 1838 4219
Q 1578 4219 1281 4162
Q 984 4106 628 3988
L 628 4550
Q 988 4650 1302 4700
Q 1616 4750 1894 4750
Q 2613 4750 3031 4423
Q 3450 4097 3450 3541
Q 3450 3153 3228 2886
Q 3006 2619 2597 2516
z
" transform="scale(0.015625)"/>
     </defs>
     <use xlink:href="#DejaVuSans-32"/>
     <use xlink:href="#DejaVuSans-34" transform="translate(63.623047 0)"/>
     <use xlink:href="#DejaVuSans-20" transform="translate(127.246094 0)"/>
     <use xlink:href="#DejaVuSans-b7" transform="translate(159.033203 0)"/>
     <use xlink:href="#DejaVuSans-20" transform="translate(190.820312 0)"/>
     <use xlink:href="#DejaVuSans-31" transform="translate(222.607422 0)"/>
     <use xlink:href="#DejaVuSans-33" transform="translate(286.230469 0)"/>
     <use xlink:href="#DejaVuSans-2c" transform="translate(349.853516 0)"/>
     <use xlink:href="#DejaVuSans-37" transform="translate(381.640625 0)"/>
     <use xlink:href="#DejaVuSans-25" transform="translate(445.263672 0)"/>
    </g>
   </g>
   <g id="text_14">
    <!-- 20 · 11,4% -->
    <g style="fill: #172a44" transform="translate(325.827122 156.84345) scale(0.1 -0.1)">
     <use xlink:href="#DejaVuSans-32"/>
     <use xlink:href="#DejaVuSans-30" transform="translate(63.623047 0)"/>
     <use xlink:href="#DejaVuSans-20" transform="translate(127.246094 0)"/>
     <use xlink:href="#DejaVuSans-b7" transform="translate(159.033203 0)"/>
     <use xlink:href="#DejaVuSans-20" transform="translate(190.820312 0)"/>
     <use xlink:href="#DejaVuSans-31" transform="translate(222.607422 0)"/>
     <use xlink:href="#DejaVuSans-31" transform="translate(286.230469 0)"/>
     <use xlink:href="#DejaVuSans-2c" transform="translate(349.853516 0)"/>
     <use xlink:href="#DejaVuSans-34" transform="translate(381.640625 0)"/>
     <use xlink:href="#DejaVuSans-25" transform="translate(445.263672 0)"/>
    </g>
   </g>
   <g id="text_15">
    <!-- 4 · 2,3% -->
    <g style="fill: #172a44" transform="translate(266.389674 219.334017) scale(0.1 -0.1)">
     <use xlink:href="#DejaVuSans-34"/>
     <use xlink:href="#DejaVuSans-20" transform="translate(63.623047 0)"/>
     <use xlink:href="#DejaVuSans-b7" transform="translate(95.410156 0)"/>
     <use xlink:href="#DejaVuSans-20" transform="translate(127.197266 0)"/>
     <use xlink:href="#DejaVuSans-32" transform="translate(158.984375 0)"/>
     <use xlink:href="#DejaVuSans-2c" transform="translate(222.607422 0)"/>
     <use xlink:href="#DejaVuSans-33" transform="translate(254.394531 0)"/>
     <use xlink:href="#DejaVuSans-25" transform="translate(318.017578 0)"/>
    </g>
   </g>
   <g id="text_16">
    <!-- 129 · 80,6% -->
    <g style="fill: #172a44" transform="translate(775.671089 55.608733) scale(0.1 -0.1)">
     <defs>
      <path id="DejaVuSans-39" d="M 703 97
L 703 672
Q 941 559 1184 500
Q 1428 441 1663 441
Q 2288 441 2617 861
Q 2947 1281 2994 2138
Q 2813 1869 2534 1725
Q 2256 1581 1919 1581
Q 1219 1581 811 2004
Q 403 2428 403 3163
Q 403 3881 828 4315
Q 1253 4750 1959 4750
Q 2769 4750 3195 4129
Q 3622 3509 3622 2328
Q 3622 1225 3098 567
Q 2575 -91 1691 -91
Q 1453 -91 1209 -44
Q 966 3 703 97
z
M 1959 2075
Q 2384 2075 2632 2365
Q 2881 2656 2881 3163
Q 2881 3666 2632 3958
Q 2384 4250 1959 4250
Q 1534 4250 1286 3958
Q 1038 3666 1038 3163
Q 1038 2656 1286 2365
Q 1534 2075 1959 2075
z
" transform="scale(0.015625)"/>
     </defs>
     <use xlink:href="#DejaVuSans-31"/>
     <use xlink:href="#DejaVuSans-32" transform="translate(63.623047 0)"/>
     <use xlink:href="#DejaVuSans-39" transform="translate(127.246094 0)"/>
     <use xlink:href="#DejaVuSans-20" transform="translate(190.869141 0)"/>
     <use xlink:href="#DejaVuSans-b7" transform="translate(222.65625 0)"/>
     <use xlink:href="#DejaVuSans-20" transform="translate(254.443359 0)"/>
     <use xlink:href="#DejaVuSans-38" transform="translate(286.230469 0)"/>
     <use xlink:href="#DejaVuSans-30" transform="translate(349.853516 0)"/>
     <use xlink:href="#DejaVuSans-2c" transform="translate(413.476562 0)"/>
     <use xlink:href="#DejaVuSans-36" transform="translate(445.263672 0)"/>
     <use xlink:href="#DejaVuSans-25" transform="translate(508.886719 0)"/>
    </g>
   </g>
   <g id="text_17">
    <!-- 33 · 20,6% -->
    <g style="fill: #172a44" transform="translate(385.612837 118.0993) scale(0.1 -0.1)">
     <use xlink:href="#DejaVuSans-33"/>
     <use xlink:href="#DejaVuSans-33" transform="translate(63.623047 0)"/>
     <use xlink:href="#DejaVuSans-20" transform="translate(127.246094 0)"/>
     <use xlink:href="#DejaVuSans-b7" transform="translate(159.033203 0)"/>
     <use xlink:href="#DejaVuSans-20" transform="translate(190.820312 0)"/>
     <use xlink:href="#DejaVuSans-32" transform="translate(222.607422 0)"/>
     <use xlink:href="#DejaVuSans-30" transform="translate(286.230469 0)"/>
     <use xlink:href="#DejaVuSans-2c" transform="translate(349.853516 0)"/>
     <use xlink:href="#DejaVuSans-36" transform="translate(381.640625 0)"/>
     <use xlink:href="#DejaVuSans-25" transform="translate(445.263672 0)"/>
    </g>
   </g>
   <g id="text_18">
    <!-- 30 · 18,8% -->
    <g style="fill: #172a44" transform="translate(373.423516 180.589866) scale(0.1 -0.1)">
     <use xlink:href="#DejaVuSans-33"/>
     <use xlink:href="#DejaVuSans-30" transform="translate(63.623047 0)"/>
     <use xlink:href="#DejaVuSans-20" transform="translate(127.246094 0)"/>
     <use xlink:href="#DejaVuSans-b7" transform="translate(159.033203 0)"/>
     <use xlink:href="#DejaVuSans-20" transform="translate(190.820312 0)"/>
     <use xlink:href="#DejaVuSans-31" transform="translate(222.607422 0)"/>
     <use xlink:href="#DejaVuSans-38" transform="translate(286.230469 0)"/>
     <use xlink:href="#DejaVuSans-2c" transform="translate(349.853516 0)"/>
     <use xlink:href="#DejaVuSans-38" transform="translate(381.640625 0)"/>
     <use xlink:href="#DejaVuSans-25" transform="translate(445.263672 0)"/>
    </g>
   </g>
   <g id="text_19">
    <!-- 4 · 2,5% -->
    <g style="fill: #172a44" transform="translate(267.78274 243.080432) scale(0.1 -0.1)">
     <use xlink:href="#DejaVuSans-34"/>
     <use xlink:href="#DejaVuSans-20" transform="translate(63.623047 0)"/>
     <use xlink:href="#DejaVuSans-b7" transform="translate(95.410156 0)"/>
     <use xlink:href="#DejaVuSans-20" transform="translate(127.197266 0)"/>
     <use xlink:href="#DejaVuSans-32" transform="translate(158.984375 0)"/>
     <use xlink:href="#DejaVuSans-2c" transform="translate(222.607422 0)"/>
     <use xlink:href="#DejaVuSans-35" transform="translate(254.394531 0)"/>
     <use xlink:href="#DejaVuSans-25" transform="translate(318.017578 0)"/>
    </g>
   </g>
   <g id="legend_1">
    <g id="patch_11">
     <path d="M 742.399375 238.888688
L 760.399375 238.888688
L 760.399375 232.588687
L 742.399375 232.588687
z
" style="fill: #a7b5ca"/>
    </g>
    <g id="text_20">
     <!-- 25–28 сентября · 175 визитов -->
     <g style="fill: #172a44" transform="translate(767.599375 238.888688) scale(0.09 -0.09)">
      <defs>
       <path id="DejaVuSans-2013" d="M 313 1978
L 2888 1978
L 2888 1528
L 313 1528
L 313 1978
z
" transform="scale(0.015625)"/>
      </defs>
      <use xlink:href="#DejaVuSans-32"/>
      <use xlink:href="#DejaVuSans-35" transform="translate(63.623047 0)"/>
      <use xlink:href="#DejaVuSans-2013" transform="translate(127.246094 0)"/>
      <use xlink:href="#DejaVuSans-32" transform="translate(177.246094 0)"/>
      <use xlink:href="#DejaVuSans-38" transform="translate(240.869141 0)"/>
      <use xlink:href="#DejaVuSans-20" transform="translate(304.492188 0)"/>
      <use xlink:href="#DejaVuSans-441" transform="translate(336.279297 0)"/>
      <use xlink:href="#DejaVuSans-435" transform="translate(391.259766 0)"/>
      <use xlink:href="#DejaVuSans-43d" transform="translate(452.783203 0)"/>
      <use xlink:href="#DejaVuSans-442" transform="translate(518.164062 0)"/>
      <use xlink:href="#DejaVuSans-44f" transform="translate(576.416016 0)"/>
      <use xlink:href="#DejaVuSans-431" transform="translate(636.572266 0)"/>
      <use xlink:href="#DejaVuSans-440" transform="translate(698.242188 0)"/>
      <use xlink:href="#DejaVuSans-44f" transform="translate(761.71875 0)"/>
      <use xlink:href="#DejaVuSans-20" transform="translate(821.875 0)"/>
      <use xlink:href="#DejaVuSans-b7" transform="translate(853.662109 0)"/>
      <use xlink:href="#DejaVuSans-20" transform="translate(885.449219 0)"/>
      <use xlink:href="#DejaVuSans-31" transform="translate(917.236328 0)"/>
      <use xlink:href="#DejaVuSans-37" transform="translate(980.859375 0)"/>
      <use xlink:href="#DejaVuSans-35" transform="translate(1044.482422 0)"/>
      <use xlink:href="#DejaVuSans-20" transform="translate(1108.105469 0)"/>
      <use xlink:href="#DejaVuSans-432" transform="translate(1139.892578 0)"/>
      <use xlink:href="#DejaVuSans-438" transform="translate(1198.828125 0)"/>
      <use xlink:href="#DejaVuSans-437" transform="translate(1263.818359 0)"/>
      <use xlink:href="#DejaVuSans-438" transform="translate(1316.992188 0)"/>
      <use xlink:href="#DejaVuSans-442" transform="translate(1381.982422 0)"/>
      <use xlink:href="#DejaVuSans-43e" transform="translate(1440.234375 0)"/>
      <use xlink:href="#DejaVuSans-432" transform="translate(1501.416016 0)"/>
     </g>
    </g>
    <g id="patch_12">
     <path d="M 742.399375 252.252281
L 760.399375 252.252281
L 760.399375 245.952281
L 742.399375 245.952281
z
" style="fill: #2863db"/>
    </g>
    <g id="text_21">
     <!-- 2–5 октября · 160 визитов -->
     <g style="fill: #172a44" transform="translate(767.599375 252.252281) scale(0.09 -0.09)">
      <use xlink:href="#DejaVuSans-32"/>
      <use xlink:href="#DejaVuSans-2013" transform="translate(63.623047 0)"/>
      <use xlink:href="#DejaVuSans-35" transform="translate(113.623047 0)"/>
      <use xlink:href="#DejaVuSans-20" transform="translate(177.246094 0)"/>
      <use xlink:href="#DejaVuSans-43e" transform="translate(209.033203 0)"/>
      <use xlink:href="#DejaVuSans-43a" transform="translate(270.214844 0)"/>
      <use xlink:href="#DejaVuSans-442" transform="translate(330.615234 0)"/>
      <use xlink:href="#DejaVuSans-44f" transform="translate(388.867188 0)"/>
      <use xlink:href="#DejaVuSans-431" transform="translate(449.023438 0)"/>
      <use xlink:href="#DejaVuSans-440" transform="translate(510.693359 0)"/>
      <use xlink:href="#DejaVuSans-44f" transform="translate(574.169922 0)"/>
      <use xlink:href="#DejaVuSans-20" transform="translate(634.326172 0)"/>
      <use xlink:href="#DejaVuSans-b7" transform="translate(666.113281 0)"/>
      <use xlink:href="#DejaVuSans-20" transform="translate(697.900391 0)"/>
      <use xlink:href="#DejaVuSans-31" transform="translate(729.6875 0)"/>
      <use xlink:href="#DejaVuSans-36" transform="translate(793.310547 0)"/>
      <use xlink:href="#DejaVuSans-30" transform="translate(856.933594 0)"/>
      <use xlink:href="#DejaVuSans-20" transform="translate(920.556641 0)"/>
      <use xlink:href="#DejaVuSans-432" transform="translate(952.34375 0)"/>
      <use xlink:href="#DejaVuSans-438" transform="translate(1011.279297 0)"/>
      <use xlink:href="#DejaVuSans-437" transform="translate(1076.269531 0)"/>
      <use xlink:href="#DejaVuSans-438" transform="translate(1129.443359 0)"/>
      <use xlink:href="#DejaVuSans-442" transform="translate(1194.433594 0)"/>
      <use xlink:href="#DejaVuSans-43e" transform="translate(1252.685547 0)"/>
      <use xlink:href="#DejaVuSans-432" transform="translate(1313.867188 0)"/>
     </g>
    </g>
   </g>
  </g>
  <g id="text_22">
   <!-- Показатели пересекаются. Это не последовательная воронка и не доказательство самостоятельного решения. -->
   <g style="fill: #172a44" transform="translate(250.850313 306.936) scale(0.09 -0.09)">
    <defs>
     <path id="DejaVuSans-41f" d="M 4184 4666
L 4184 0
L 3553 0
L 3553 4134
L 1259 4134
L 1259 0
L 628 0
L 628 4666
L 4184 4666
z
" transform="scale(0.015625)"/>
     <path id="DejaVuSans-44e" d="M 3431 3097
Q 2969 3097 2700 2736
Q 2431 2375 2431 1747
Q 2431 1119 2698 758
Q 2966 397 3431 397
Q 3891 397 4159 759
Q 4428 1122 4428 1747
Q 4428 2369 4159 2733
Q 3891 3097 3431 3097
z
M 1844 2103
Q 1903 2697 2292 3140
Q 2681 3584 3431 3584
Q 4181 3584 4609 3096
Q 5038 2609 5038 1747
Q 5038 888 4609 398
Q 4181 -91 3431 -91
Q 2678 -91 2267 381
Q 1856 853 1828 1628
L 1178 1628
L 1178 0
L 603 0
L 603 3500
L 1178 3500
L 1178 2103
L 1844 2103
z
" transform="scale(0.015625)"/>
     <path id="DejaVuSans-2e" d="M 684 794
L 1344 794
L 1344 0
L 684 0
L 684 794
z
" transform="scale(0.015625)"/>
     <path id="DejaVuSans-42d" d="M 347 1019
Q 1006 428 1806 428
Q 2631 428 3003 872
Q 3375 1316 3444 2063
L 950 2063
L 950 2594
L 3444 2594
Q 3375 3341 3003 3786
Q 2631 4231 1806 4231
Q 1006 4231 347 3641
L 347 4306
Q 997 4750 1844 4750
Q 2891 4750 3500 4101
Q 4109 3453 4109 2331
Q 4109 1206 3500 557
Q 2891 -91 1844 -91
Q 1009 -91 347 359
L 347 1019
z
" transform="scale(0.015625)"/>
     <path id="DejaVuSans-433" d="M 581 0
L 581 3500
L 3050 3500
L 3050 3041
L 1159 3041
L 1159 0
L 581 0
z
" transform="scale(0.015625)"/>
    </defs>
    <use xlink:href="#DejaVuSans-41f"/>
    <use xlink:href="#DejaVuSans-43e" transform="translate(75.195312 0)"/>
    <use xlink:href="#DejaVuSans-43a" transform="translate(136.376953 0)"/>
    <use xlink:href="#DejaVuSans-430" transform="translate(196.777344 0)"/>
    <use xlink:href="#DejaVuSans-437" transform="translate(258.056641 0)"/>
    <use xlink:href="#DejaVuSans-430" transform="translate(311.230469 0)"/>
    <use xlink:href="#DejaVuSans-442" transform="translate(372.509766 0)"/>
    <use xlink:href="#DejaVuSans-435" transform="translate(430.761719 0)"/>
    <use xlink:href="#DejaVuSans-43b" transform="translate(492.285156 0)"/>
    <use xlink:href="#DejaVuSans-438" transform="translate(556.201172 0)"/>
    <use xlink:href="#DejaVuSans-20" transform="translate(621.191406 0)"/>
    <use xlink:href="#DejaVuSans-43f" transform="translate(652.978516 0)"/>
    <use xlink:href="#DejaVuSans-435" transform="translate(718.359375 0)"/>
    <use xlink:href="#DejaVuSans-440" transform="translate(779.882812 0)"/>
    <use xlink:href="#DejaVuSans-435" transform="translate(843.359375 0)"/>
    <use xlink:href="#DejaVuSans-441" transform="translate(904.882812 0)"/>
    <use xlink:href="#DejaVuSans-435" transform="translate(959.863281 0)"/>
    <use xlink:href="#DejaVuSans-43a" transform="translate(1021.386719 0)"/>
    <use xlink:href="#DejaVuSans-430" transform="translate(1081.787109 0)"/>
    <use xlink:href="#DejaVuSans-44e" transform="translate(1143.066406 0)"/>
    <use xlink:href="#DejaVuSans-442" transform="translate(1227.246094 0)"/>
    <use xlink:href="#DejaVuSans-441" transform="translate(1285.498047 0)"/>
    <use xlink:href="#DejaVuSans-44f" transform="translate(1340.478516 0)"/>
    <use xlink:href="#DejaVuSans-2e" transform="translate(1400.634766 0)"/>
    <use xlink:href="#DejaVuSans-20" transform="translate(1432.421875 0)"/>
    <use xlink:href="#DejaVuSans-42d" transform="translate(1464.208984 0)"/>
    <use xlink:href="#DejaVuSans-442" transform="translate(1534.033203 0)"/>
    <use xlink:href="#DejaVuSans-43e" transform="translate(1592.285156 0)"/>
    <use xlink:href="#DejaVuSans-20" transform="translate(1653.466797 0)"/>
    <use xlink:href="#DejaVuSans-43d" transform="translate(1685.253906 0)"/>
    <use xlink:href="#DejaVuSans-435" transform="translate(1750.634766 0)"/>
    <use xlink:href="#DejaVuSans-20" transform="translate(1812.158203 0)"/>
    <use xlink:href="#DejaVuSans-43f" transform="translate(1843.945312 0)"/>
    <use xlink:href="#DejaVuSans-43e" transform="translate(1909.326172 0)"/>
    <use xlink:href="#DejaVuSans-441" transform="translate(1970.507812 0)"/>
    <use xlink:href="#DejaVuSans-43b" transform="translate(2025.488281 0)"/>
    <use xlink:href="#DejaVuSans-435" transform="translate(2089.404297 0)"/>
    <use xlink:href="#DejaVuSans-434" transform="translate(2150.927734 0)"/>
    <use xlink:href="#DejaVuSans-43e" transform="translate(2220.068359 0)"/>
    <use xlink:href="#DejaVuSans-432" transform="translate(2281.25 0)"/>
    <use xlink:href="#DejaVuSans-430" transform="translate(2340.185547 0)"/>
    <use xlink:href="#DejaVuSans-442" transform="translate(2401.464844 0)"/>
    <use xlink:href="#DejaVuSans-435" transform="translate(2459.716797 0)"/>
    <use xlink:href="#DejaVuSans-43b" transform="translate(2521.240234 0)"/>
    <use xlink:href="#DejaVuSans-44c" transform="translate(2585.15625 0)"/>
    <use xlink:href="#DejaVuSans-43d" transform="translate(2644.091797 0)"/>
    <use xlink:href="#DejaVuSans-430" transform="translate(2709.472656 0)"/>
    <use xlink:href="#DejaVuSans-44f" transform="translate(2770.751953 0)"/>
    <use xlink:href="#DejaVuSans-20" transform="translate(2830.908203 0)"/>
    <use xlink:href="#DejaVuSans-432" transform="translate(2862.695312 0)"/>
    <use xlink:href="#DejaVuSans-43e" transform="translate(2921.630859 0)"/>
    <use xlink:href="#DejaVuSans-440" transform="translate(2982.8125 0)"/>
    <use xlink:href="#DejaVuSans-43e" transform="translate(3046.289062 0)"/>
    <use xlink:href="#DejaVuSans-43d" transform="translate(3107.470703 0)"/>
    <use xlink:href="#DejaVuSans-43a" transform="translate(3172.851562 0)"/>
    <use xlink:href="#DejaVuSans-430" transform="translate(3233.251953 0)"/>
    <use xlink:href="#DejaVuSans-20" transform="translate(3294.53125 0)"/>
    <use xlink:href="#DejaVuSans-438" transform="translate(3326.318359 0)"/>
    <use xlink:href="#DejaVuSans-20" transform="translate(3391.308594 0)"/>
    <use xlink:href="#DejaVuSans-43d" transform="translate(3423.095703 0)"/>
    <use xlink:href="#DejaVuSans-435" transform="translate(3488.476562 0)"/>
    <use xlink:href="#DejaVuSans-20" transform="translate(3550 0)"/>
    <use xlink:href="#DejaVuSans-434" transform="translate(3581.787109 0)"/>
    <use xlink:href="#DejaVuSans-43e" transform="translate(3650.927734 0)"/>
    <use xlink:href="#DejaVuSans-43a" transform="translate(3712.109375 0)"/>
    <use xlink:href="#DejaVuSans-430" transform="translate(3772.509766 0)"/>
    <use xlink:href="#DejaVuSans-437" transform="translate(3833.789062 0)"/>
    <use xlink:href="#DejaVuSans-430" transform="translate(3886.962891 0)"/>
    <use xlink:href="#DejaVuSans-442" transform="translate(3948.242188 0)"/>
    <use xlink:href="#DejaVuSans-435" transform="translate(4006.494141 0)"/>
    <use xlink:href="#DejaVuSans-43b" transform="translate(4068.017578 0)"/>
    <use xlink:href="#DejaVuSans-44c" transform="translate(4131.933594 0)"/>
    <use xlink:href="#DejaVuSans-441" transform="translate(4190.869141 0)"/>
    <use xlink:href="#DejaVuSans-442" transform="translate(4245.849609 0)"/>
    <use xlink:href="#DejaVuSans-432" transform="translate(4304.101562 0)"/>
    <use xlink:href="#DejaVuSans-43e" transform="translate(4363.037109 0)"/>
    <use xlink:href="#DejaVuSans-20" transform="translate(4424.21875 0)"/>
    <use xlink:href="#DejaVuSans-441" transform="translate(4456.005859 0)"/>
    <use xlink:href="#DejaVuSans-430" transform="translate(4510.986328 0)"/>
    <use xlink:href="#DejaVuSans-43c" transform="translate(4572.265625 0)"/>
    <use xlink:href="#DejaVuSans-43e" transform="translate(4647.705078 0)"/>
    <use xlink:href="#DejaVuSans-441" transform="translate(4708.886719 0)"/>
    <use xlink:href="#DejaVuSans-442" transform="translate(4763.867188 0)"/>
    <use xlink:href="#DejaVuSans-43e" transform="translate(4822.119141 0)"/>
    <use xlink:href="#DejaVuSans-44f" transform="translate(4883.300781 0)"/>
    <use xlink:href="#DejaVuSans-442" transform="translate(4943.457031 0)"/>
    <use xlink:href="#DejaVuSans-435" transform="translate(5001.708984 0)"/>
    <use xlink:href="#DejaVuSans-43b" transform="translate(5063.232422 0)"/>
    <use xlink:href="#DejaVuSans-44c" transform="translate(5127.148438 0)"/>
    <use xlink:href="#DejaVuSans-43d" transform="translate(5186.083984 0)"/>
    <use xlink:href="#DejaVuSans-43e" transform="translate(5251.464844 0)"/>
    <use xlink:href="#DejaVuSans-433" transform="translate(5312.646484 0)"/>
    <use xlink:href="#DejaVuSans-43e" transform="translate(5365.185547 0)"/>
    <use xlink:href="#DejaVuSans-20" transform="translate(5426.367188 0)"/>
    <use xlink:href="#DejaVuSans-440" transform="translate(5458.154297 0)"/>
    <use xlink:href="#DejaVuSans-435" transform="translate(5521.630859 0)"/>
    <use xlink:href="#DejaVuSans-448" transform="translate(5583.154297 0)"/>
    <use xlink:href="#DejaVuSans-435" transform="translate(5674.658203 0)"/>
    <use xlink:href="#DejaVuSans-43d" transform="translate(5736.181641 0)"/>
    <use xlink:href="#DejaVuSans-438" transform="translate(5801.5625 0)"/>
    <use xlink:href="#DejaVuSans-44f" transform="translate(5866.552734 0)"/>
    <use xlink:href="#DejaVuSans-2e" transform="translate(5926.708984 0)"/>
   </g>
  </g>
 </g>
 <defs>
  <clipPath id="pc0d290f11c">
   <rect x="246.530313" y="7.2" width="669.6" height="255.024"/>
  </clipPath>
 </defs>
</svg>
